<svg xmlns="http://www.w3.org/2000/svg"  viewBox="0 0 64 64" width="128px" height="128px"><path d="M 26.595703 1.96875 C 24.962273 1.9372811 23.9375 2.0019531 23.9375 2.0019531 A 1.0001 1.0001 0 0 0 23.503906 2.1308594 L 9.5039062 10.130859 L 9.5527344 10.105469 C 9.5527344 10.105469 9.4311796 10.173139 9.3691406 10.220703 C 9.3071016 10.268263 9.2455125 10.326236 9.1835938 10.392578 C 9.0597559 10.525261 8.9368304 10.696215 8.8105469 10.927734 C 8.5579799 11.390774 8.2870488 12.096952 8.0234375 13.283203 C 7.4962151 15.655705 7 19.958333 7 28 C 7 36.676471 9.3166943 42.230757 12.667969 45.582031 C 16.019243 48.933305 20.309524 50 24 50 C 27.785714 50 31.96444 48.415261 35.267578 45.640625 C 38.570716 42.865989 41 38.833333 41 34 C 41 30.452381 40.762795 27.138174 39.953125 24.574219 C 39.54829 23.292241 38.998171 22.181628 38.183594 21.347656 C 37.369017 20.513685 36.25 20 35 20 C 30.666667 20 27.371536 22.214401 24.292969 25.292969 A 1.0001 1.0001 0 0 0 25 27 C 25 27 26.70177 27.0034 28.359375 27.240234 C 29.188177 27.358635 30.003377 27.545811 30.511719 27.763672 C 30.76589 27.872602 30.935468 27.990156 30.992188 28.046875 C 30.987987 28.901313 30.745553 31.349279 30.050781 33.433594 C 29.700377 34.484807 29.23307 35.445285 28.703125 36.076172 C 28.17318 36.707058 27.666667 37 27 37 C 25.5 37 23.979625 35.791703 22.832031 34.070312 C 21.684437 32.348923 21 30.166667 21 29 C 21 28 21.0218 24.406821 22.419922 21.144531 C 23.818046 17.882241 26.361111 15 32 15 C 34.777778 15 36.826654 15.899254 38.449219 17.265625 C 40.071784 18.631996 41.251037 20.496512 42.083984 22.400391 C 43.736978 26.178663 43.992149 29.966401 43.996094 30.025391 C 43.986894 40.17587 38.966085 46.593891 33.882812 50.587891 C 28.794873 54.585558 23.724609 56.039062 23.724609 56.039062 A 1.0001 1.0001 0 0 0 23.486328 57.857422 C 28.553582 60.897774 31.925926 62 41 62 A 1.0001 1.0001 0 0 0 41.648438 61.761719 C 44.887839 59.001649 52.373047 55.927734 52.373047 55.927734 A 1.0001 1.0001 0 0 0 52.832031 55.554688 C 52.832031 55.554688 53.917596 53.911275 54.949219 50.816406 C 55.980842 47.721538 57 43.111111 57 37 C 57 24.777778 52.840781 17.453724 46.800781 9.4003906 C 43.532781 5.0430573 37.775493 3.2805466 32.90625 2.5117188 C 30.471628 2.1273047 28.229133 2.0002189 26.595703 1.96875 z M 24.955078 3.96875 C 25.337799 3.9594016 25.880163 3.9545405 26.591797 3.96875 C 28.145867 3.999781 30.278372 4.1226952 32.59375 4.4882812 C 37.224507 5.2194534 42.467219 6.9569431 45.199219 10.599609 C 51.159213 18.546276 55 25.222222 55 37 C 55 42.888889 54.019158 47.278462 53.050781 50.183594 C 52.130382 52.944793 51.345882 54.106182 51.261719 54.234375 C 50.678237 54.465955 44.419735 56.99411 40.708984 59.990234 C 33.254284 59.970394 30.169075 59.210811 26.373047 57.154297 C 28.333445 56.416509 31.379111 55.09917 35.117188 52.162109 C 40.529246 47.909777 46 40.833333 46 30 A 1.0001 1.0001 0 0 0 45.998047 29.9375 C 45.998047 29.9375 45.750122 25.791852 43.916016 21.599609 C 42.998963 19.503488 41.678216 17.368004 39.738281 15.734375 C 37.798393 14.100746 35.222222 13 32 13 C 25.638889 13 22.181954 16.617759 20.580078 20.355469 C 18.978202 24.093179 19 28 19 29 C 19 30.833333 19.815563 33.151077 21.167969 35.179688 C 22.520375 37.208297 24.5 39 27 39 C 28.333333 39 29.45182 38.292942 30.234375 37.361328 C 31.01693 36.429715 31.549623 35.265193 31.949219 34.066406 C 32.74841 31.668833 33 29.166667 33 28 C 33 27.458333 32.732343 26.958906 32.40625 26.632812 C 32.080157 26.306719 31.70286 26.096148 31.300781 25.923828 C 30.496623 25.579189 29.561823 25.391365 28.640625 25.259766 C 28.12961 25.186763 28.09774 25.225272 27.630859 25.1875 C 29.878974 23.324269 32.140969 22 35 22 C 35.75 22 36.255983 22.236315 36.753906 22.746094 C 37.251829 23.255872 37.70171 24.082759 38.046875 25.175781 C 38.737205 27.361826 39 30.547619 39 34 C 39 38.166667 36.929284 41.634011 33.982422 44.109375 C 31.03556 46.584739 27.214286 48 24 48 C 20.690476 48 16.980757 47.066695 14.082031 44.167969 C 11.183305 41.269243 9 36.323529 9 28 C 9 20.041667 9.5037851 15.844295 9.9765625 13.716797 C 10.212951 12.653048 10.44202 12.109226 10.564453 11.884766 C 10.604453 11.811426 10.606658 11.814691 10.617188 11.800781 L 24.275391 3.9960938 C 24.349278 3.9919338 24.572357 3.9780984 24.955078 3.96875 z M 24.833984 5.3261719 C 24.705875 5.3477188 24.579391 5.3945 24.462891 5.46875 C 23.996891 5.76575 23.86025 6.3836094 24.15625 6.8496094 L 25.230469 8.5371094 C 25.527469 9.0031094 26.145328 9.13975 26.611328 8.84375 C 27.077328 8.54675 27.213969 7.9288906 26.917969 7.4628906 L 25.84375 5.7753906 C 25.621 5.4258906 25.218312 5.2615313 24.833984 5.3261719 z M 20.759766 8.0136719 C 20.631656 8.0351719 20.505172 8.08225 20.388672 8.15625 C 19.922672 8.45325 19.786031 9.0711094 20.082031 9.5371094 L 21.15625 11.224609 C 21.45325 11.690609 22.071109 11.82725 22.537109 11.53125 C 23.003109 11.23425 23.13975 10.616391 22.84375 10.150391 L 21.769531 8.4628906 C 21.546781 8.1133906 21.144094 7.9491719 20.759766 8.0136719 z M 16.759766 10.326172 C 16.631656 10.347719 16.505172 10.3945 16.388672 10.46875 C 15.922672 10.76575 15.786031 11.383609 16.082031 11.849609 L 17.15625 13.537109 C 17.45325 14.003109 18.071109 14.13975 18.537109 13.84375 C 19.003109 13.54675 19.13975 12.928891 18.84375 12.462891 L 17.769531 10.775391 C 17.546781 10.425891 17.144094 10.261531 16.759766 10.326172 z M 12.833984 13.013672 C 12.705875 13.035172 12.579391 13.08225 12.462891 13.15625 C 11.996891 13.45325 11.86025 14.071109 12.15625 14.537109 L 13.230469 16.224609 C 13.527469 16.690609 14.145328 16.82725 14.611328 16.53125 C 15.077328 16.23425 15.213969 15.616391 14.917969 15.150391 L 13.84375 13.462891 C 13.621 13.113391 13.218313 12.949172 12.833984 13.013672 z M 49.015625 21.988281 A 1.0001 1.0001 0 0 0 48.105469 23.447266 C 48.990744 25.217815 50.622022 30.425484 51.009766 33.140625 A 1.0001694 1.0001694 0 1 0 52.990234 32.859375 C 52.547978 29.762516 51.009256 24.782185 49.894531 22.552734 A 1.0001 1.0001 0 0 0 49.015625 21.988281 z M 11.984375 25.986328 A 1.0001 1.0001 0 0 0 11 27 C 11 29.463661 11.355639 32.959475 12.517578 36.326172 A 1.0001 1.0001 0 1 0 14.408203 35.673828 C 13.346142 32.596525 13 29.266339 13 27 A 1.0001 1.0001 0 0 0 11.984375 25.986328 z M 52.091797 36.986328 A 1.0001 1.0001 0 0 0 51.150391 37.943359 C 51.075501 39.260204 50.926763 40.588064 50.740234 41.853516 A 1.0001 1.0001 0 1 0 52.71875 42.146484 C 52.912221 40.833936 53.067371 39.447796 53.146484 38.056641 A 1.0001 1.0001 0 0 0 52.191406 36.986328 A 1.0001 1.0001 0 0 0 52.091797 36.986328 z M 15.378906 38.988281 A 1.0001 1.0001 0 0 0 14.548828 40.550781 C 15.05645 41.321298 15.634205 42.048268 16.292969 42.707031 A 1.0001 1.0001 0 1 0 17.707031 41.292969 C 17.155795 40.741732 16.661128 40.120702 16.21875 39.449219 A 1.0001 1.0001 0 0 0 15.378906 38.988281 z M 47.833984 47.326172 C 47.705875 47.347719 47.579391 47.3945 47.462891 47.46875 C 46.996891 47.76575 46.86025 48.383609 47.15625 48.849609 L 48.230469 50.537109 C 48.527469 51.003109 49.145328 51.13975 49.611328 50.84375 C 50.077328 50.54775 50.213969 49.928891 49.917969 49.462891 L 48.84375 47.775391 C 48.621 47.425891 48.218313 47.261531 47.833984 47.326172 z M 43.833984 50.013672 C 43.705875 50.035172 43.579391 50.08225 43.462891 50.15625 C 42.996891 50.45325 42.86025 51.071109 43.15625 51.537109 L 44.230469 53.224609 C 44.527469 53.690609 45.145328 53.82725 45.611328 53.53125 C 46.077328 53.23425 46.213969 52.616391 45.917969 52.150391 L 44.84375 50.462891 C 44.621 50.113391 44.218313 49.949172 43.833984 50.013672 z M 39.833984 53.013672 C 39.705875 53.035172 39.579391 53.08225 39.462891 53.15625 C 38.996891 53.45325 38.86025 54.071109 39.15625 54.537109 L 40.230469 56.224609 C 40.527469 56.690609 41.145328 56.82725 41.611328 56.53125 C 42.077328 56.23425 42.213969 55.616391 41.917969 55.150391 L 40.84375 53.462891 C 40.621 53.113391 40.218313 52.949172 39.833984 53.013672 z"/></svg>