<?xml version="1.0" encoding="utf-8"?>
<!-- Uploaded to: SVG Repo, www.svgrepo.com, Generator: SVG Repo Mixer Tools -->
<svg fill="#000000" width="800px" height="800px" viewBox="0 0 32 32" version="1.1" xmlns="http://www.w3.org/2000/svg">
<title>arrow-left</title>
<path d="M30 14.75h-24.982l7.866-7.866c0.225-0.226 0.363-0.537 0.363-0.881 0-0.69-0.56-1.25-1.25-1.25-0.344 0-0.655 0.139-0.881 0.363l-10 10c-0.011 0.011-0.015 0.027-0.026 0.039-0.1 0.104-0.183 0.225-0.243 0.359l-0.003 0.008-0 0.004c-0.050 0.129-0.079 0.279-0.079 0.435 0 0.072 0.006 0.142 0.018 0.21l-0.001-0.007c0.007 0.058 0.018 0.108 0.031 0.158l-0.002-0.008c0.051 0.223 0.158 0.417 0.306 0.571l-0-0 10 10.001c0.226 0.226 0.539 0.366 0.884 0.366 0.691 0 1.251-0.56 1.251-1.251 0-0.346-0.14-0.658-0.367-0.885v0l-7.866-7.865h24.982c0.69 0 1.25-0.56 1.25-1.25s-0.56-1.25-1.25-1.25v0z"></path>
</svg>