<svg xmlns="http://www.w3.org/2000/svg" width="100" height="100" viewBox="0 0 100 100" version="1.1"><path d="M 60.602 32.158 C 59.721 33.416, 59 35.020, 59 35.723 C 59 36.425, 58.550 37, 58 37 C 57.450 37, 57 37.792, 57 38.759 C 57 41.030, 74.856 49.544, 76.394 48.006 C 77.069 47.331, 76.798 47, 75.572 47 C 73.457 47, 63.811 41.682, 62.027 39.532 C 61.089 38.402, 61.085 37.273, 62.009 34.472 C 63.447 30.115, 62.790 29.034, 60.602 32.158 M 64.126 35.348 C 63.272 36.377, 63.482 37.126, 65.010 38.509 C 67.466 40.732, 68.308 40.077, 67.440 36.618 C 66.707 33.697, 65.788 33.345, 64.126 35.348" stroke="none" fill="#dee7e6" fill-rule="evenodd"/><path d="M 54 9.913 C 50.975 10.236, 49.175 10.749, 50 11.052 C 52.271 11.889, 63 10.944, 63 9.907 C 63 9.408, 62.212 9.073, 61.250 9.163 C 60.288 9.253, 57.025 9.590, 54 9.913 M 43.760 23.204 C 44.717 24.417, 46.903 26.877, 48.617 28.671 C 50.331 30.465, 51.456 32.245, 51.117 32.627 C 50.778 33.009, 51.084 32.983, 51.799 32.571 C 53.299 31.705, 52.750 30.790, 47.101 24.750 C 43.319 20.706, 40.906 19.590, 43.760 23.204 M 19.750 37.080 C 17.530 38.373, 17.481 41.587, 19.667 42.426 C 21.689 43.202, 22.538 42.363, 23.390 38.750 C 24.090 35.779, 22.912 35.238, 19.750 37.080 M 40.521 38.034 C 41.531 39.669, 23.643 44.547, 19.526 43.760 C 18.208 43.508, 16.717 43.572, 16.214 43.901 C 14.673 44.910, 10 52.865, 10 54.480 C 10 56.321, 12.105 56.465, 13.930 54.750 C 15.028 53.719, 15.161 54.159, 14.690 57.267 C 14.212 60.425, 14.770 62.160, 18.147 68.017 C 21.984 74.672, 24.298 77.531, 21.979 72.750 C 20.905 70.537, 20.921 70.539, 22.944 72.861 C 25.188 75.437, 25.396 75.008, 25.065 68.491 C 24.901 65.282, 25.375 64.035, 27.438 62.241 C 30.658 59.441, 32.744 59.411, 35.633 62.124 C 37.720 64.085, 38.019 64.124, 39.518 62.624 C 41.018 61.125, 43 60.437, 43 61.417 C 43 63.713, 38.493 71.238, 35.593 73.784 C 32.428 76.563, 32.217 77, 34.039 77 C 35.469 77, 36.043 77.536, 35.823 78.667 C 35.223 81.761, 33.096 81.162, 30.290 77.108 C 28.756 74.890, 27.073 73.059, 26.550 73.038 C 26.028 73.017, 26.140 73.540, 26.800 74.200 C 28.323 75.723, 28.370 77.347, 26.865 76.416 C 26.240 76.030, 26.626 77.016, 27.721 78.607 C 28.817 80.198, 30.463 82.737, 31.380 84.250 C 32.296 85.762, 33.763 87, 34.640 87 C 35.741 87, 36.072 87.618, 35.710 89 C 35.423 90.100, 35.595 91, 36.094 91 C 36.592 91, 37 90.023, 37 88.829 C 37 87.635, 37.602 85.947, 38.337 85.079 C 39.515 83.687, 49.052 62.096, 50.601 57.314 C 51.097 55.783, 51.013 55.734, 50.063 57 C 49.194 58.157, 48.984 57.074, 49.142 52.257 C 49.255 48.824, 49.044 45.711, 48.674 45.341 C 48.303 44.970, 48 47.457, 48 50.867 C 48 55.509, 47.368 58.315, 45.483 62.033 C 44.099 64.765, 42.737 67, 42.457 67 C 42.178 67, 42.673 65.599, 43.558 63.887 C 44.443 62.176, 45.411 58.422, 45.707 55.545 C 46.236 50.428, 46.172 50.269, 42.756 48.158 C 38.681 45.640, 34.390 45.448, 27.675 47.486 C 24.058 48.583, 22.947 48.643, 23.238 47.725 C 23.655 46.406, 47.744 40.010, 49.649 40.713 C 50.281 40.946, 51.092 40.661, 51.451 40.080 C 51.836 39.457, 51.519 39.247, 50.681 39.569 C 49.898 39.869, 48.990 39.417, 48.663 38.563 C 48.247 37.479, 46.865 37.059, 44.075 37.168 C 41.879 37.254, 40.280 37.644, 40.521 38.034 M 55.116 39.200 C 55.052 40.135, 54.326 41.278, 53.501 41.739 C 52.482 42.310, 51.905 44.555, 51.696 48.759 L 51.390 54.941 53.551 51.220 C 55.342 48.137, 55.480 47.310, 54.356 46.390 C 52.729 45.058, 52.604 43.363, 54.067 42.459 C 54.653 42.096, 55.741 42.632, 56.485 43.648 C 57.228 44.665, 58.210 45.123, 58.667 44.667 C 59.123 44.210, 58.763 43.300, 57.865 42.643 C 56.968 41.987, 56.008 40.561, 55.733 39.475 C 55.341 37.928, 55.207 37.869, 55.116 39.200 M 62.118 55.125 C 61.944 58.990, 63.111 64, 64.184 64 C 64.698 64, 64.826 63.527, 64.469 62.950 C 64.112 62.372, 63.463 59.785, 63.028 57.200 C 62.570 54.486, 62.186 53.609, 62.118 55.125 M 22.677 59.128 C 22.247 60.771, 21.550 61.147, 19.616 60.777 L 17.112 60.299 18.978 63.899 C 20.004 65.880, 21.539 68.400, 22.390 69.500 C 23.902 71.455, 23.937 71.441, 23.968 68.890 C 23.986 67.454, 24.286 64.191, 24.636 61.640 C 25.285 56.903, 23.767 54.957, 22.677 59.128 M 52 64.378 C 52 65.135, 51.320 66.320, 50.488 67.010 C 49.657 67.700, 48.053 70.117, 46.923 72.382 C 45.794 74.647, 43.575 78.975, 41.993 82 C 38.100 89.444, 38.187 90, 43.250 90.001 C 50.777 90.004, 68.939 87.710, 68.392 86.826 C 68.101 86.355, 63.659 86.265, 58.521 86.626 C 48.682 87.318, 44.305 86.684, 47.028 84.962 C 47.838 84.450, 50.300 83.989, 52.500 83.939 C 57.249 83.831, 63.220 81.840, 63.773 80.181 C 64.006 79.481, 63.138 79, 61.639 79 C 60.249 79, 57.981 77.987, 56.599 76.750 C 54.359 74.744, 54.174 74.050, 54.890 70.352 C 55.682 66.264, 54.821 63, 52.950 63 C 52.428 63, 52 63.620, 52 64.378 M 70 68.519 C 70 69.435, 70.933 71.371, 72.074 72.821 L 74.148 75.458 73.824 71.487 C 73.593 68.660, 72.996 67.421, 71.750 67.185 C 70.651 66.977, 70 67.473, 70 68.519 M 40.683 72.880 C 40.878 73.640, 39.904 76.195, 38.519 78.558 C 35.732 83.314, 34.944 87.586, 37.337 84.964 C 39.371 82.736, 44.340 70.473, 42.636 71.888 C 41.843 72.545, 40.999 72.727, 40.761 72.292 C 40.523 71.856, 40.487 72.121, 40.683 72.880 M 76.142 75.720 C 74.136 76.101, 73.870 76.599, 74.360 79.052 C 74.911 81.804, 74.800 81.910, 71.969 81.344 C 70.084 80.967, 69 81.161, 69 81.875 C 69 82.516, 70.678 83, 72.899 83 C 76.434 83, 76.993 82.626, 78.883 79 C 81.021 74.898, 80.946 74.808, 76.142 75.720 M 41.535 85.587 C 39.713 88.367, 40.025 89.707, 42.175 88.342 C 42.904 87.879, 43.536 86.487, 43.579 85.250 C 43.679 82.425, 43.598 82.439, 41.535 85.587" stroke="none" fill="#315081" fill-rule="evenodd"/><path d="M 53 7.951 C 51.625 8.365, 54.550 8.508, 59.500 8.269 C 64.450 8.031, 68.950 7.683, 69.500 7.497 C 71.589 6.789, 55.380 7.235, 53 7.951 M 40.285 8.743 L 32.070 9.080 28.334 16.790 C 26.280 21.030, 23.700 25.819, 22.603 27.431 C 21.505 29.042, 21.155 30.023, 21.824 29.609 C 22.494 29.195, 24.378 26.526, 26.011 23.678 C 28.939 18.574, 28.981 18.546, 28.991 21.691 C 28.996 23.446, 28.540 25.166, 27.977 25.514 C 27.336 25.910, 27.761 27.581, 29.115 29.992 C 31.464 34.171, 31.114 37, 28.247 37 C 27.248 37, 25.634 38.350, 24.659 40 C 22.958 42.881, 22.959 42.996, 24.693 42.900 C 25.687 42.845, 27.625 42.440, 29 42 C 31.466 41.210, 31.469 41.198, 29.191 41.100 C 27.921 41.045, 27.140 40.583, 27.454 40.074 C 27.784 39.540, 29.236 39.494, 30.880 39.965 C 32.448 40.415, 34.355 40.389, 35.116 39.907 C 36.109 39.278, 35.739 39.026, 33.809 39.015 C 30.530 38.997, 29.506 37.655, 31.505 35.996 C 32.885 34.851, 40.591 35.113, 49 36.591 C 51.204 36.979, 51.263 36.919, 49.500 36.086 C 48.400 35.566, 46.202 35.109, 44.616 35.070 C 43.030 35.032, 39.992 34.479, 37.866 33.842 C 34.845 32.937, 34 32.184, 34 30.401 C 34 29.145, 33.648 27.901, 33.219 27.635 C 31.980 26.870, 31.845 21, 33.066 21 C 33.669 21, 33.190 19.425, 32 17.500 C 30.250 14.668, 30.125 14, 31.346 14 C 32.176 14, 34.049 15.462, 35.509 17.250 C 36.968 19.038, 37.717 19.595, 37.174 18.489 C 36.630 17.383, 35.244 15.625, 34.093 14.584 C 31.446 12.188, 31.402 10, 34 10 C 35.263 10, 36 10.667, 36 11.809 C 36 12.804, 36.700 14.491, 37.555 15.559 C 39.067 17.446, 39.082 17.441, 38.090 15.381 C 37.091 13.306, 37.507 12, 39.167 12 C 39.625 12, 40.007 13.238, 40.015 14.750 C 40.036 18.437, 40.982 19.707, 44.341 20.549 C 45.892 20.939, 47.416 21.919, 47.726 22.729 C 48.037 23.538, 49.238 25.167, 50.395 26.350 C 51.553 27.532, 53.206 29.589, 54.069 30.920 C 55.632 33.331, 55.636 33.325, 55.210 29.670 C 54.858 26.657, 55.100 26, 56.562 26 C 57.541 26, 59.193 25.230, 60.232 24.290 C 61.726 22.938, 62.290 22.851, 62.922 23.874 C 63.548 24.886, 63.854 24.823, 64.329 23.584 C 64.664 22.713, 64.446 22, 63.847 22 C 63.193 22, 63.373 21.099, 64.298 19.750 C 65.145 18.512, 66.325 17.613, 66.920 17.750 C 67.514 17.888, 68 17.550, 68 17 C 68 15.550, 66.778 15.767, 64.006 17.708 L 61.567 19.417 63.897 16.145 C 65.322 14.144, 66.785 13.087, 67.665 13.425 C 68.456 13.729, 68.853 13.571, 68.546 13.074 C 68.239 12.577, 68.553 11.917, 69.244 11.608 C 70.621 10.990, 57.177 11.885, 50 12.889 C 46.334 13.401, 45.441 13.933, 45.180 15.759 C 44.812 18.342, 43.754 18.614, 42.053 16.564 C 41.185 15.518, 41.152 14.585, 41.932 13.127 C 42.888 11.342, 42.654 11.084, 39.751 10.723 C 37.614 10.458, 38.384 10.260, 42 10.145 C 45.025 10.048, 48.175 9.533, 49 9 C 49.825 8.467, 50.050 8.115, 49.500 8.219 C 48.950 8.322, 44.803 8.558, 40.285 8.743 M 45.250 41.641 C 43.136 42.530, 43.865 43.797, 46.404 43.644 C 47.726 43.565, 48.600 43.163, 48.345 42.750 C 48.090 42.337, 48.551 42, 49.368 42 C 50.185 42, 51.066 42.684, 51.325 43.520 C 51.656 44.586, 51.750 44.512, 51.640 43.270 C 51.482 41.492, 47.821 40.558, 45.250 41.641 M 64.667 47.667 C 64.300 48.033, 64 48.783, 64 49.333 C 64 49.883, 64.296 50.037, 64.658 49.675 C 65.020 49.313, 65.807 49.398, 66.408 49.864 C 67.878 51.003, 74 53.029, 74 52.377 C 74 52.091, 73.325 51.182, 72.500 50.357 C 71.675 49.532, 71 49.204, 71 49.629 C 71 50.053, 70.495 49.895, 69.878 49.278 C 69.261 48.661, 68.062 48.423, 67.214 48.748 C 66.202 49.137, 65.920 48.938, 66.395 48.170 C 67.160 46.932, 65.798 46.535, 64.667 47.667 M 54.599 49.840 C 54.303 50.319, 53.636 51.827, 53.118 53.189 C 52.391 55.101, 52.499 55.667, 53.588 55.667 C 54.365 55.667, 55 54.932, 55 54.033 C 55 53.135, 55.489 51.911, 56.087 51.313 C 56.814 50.586, 56.837 50.017, 56.156 49.597 C 55.596 49.251, 54.896 49.360, 54.599 49.840 M 75.010 52.278 C 75.018 53.293, 84.907 57.426, 85.621 56.713 C 85.746 56.588, 83.407 55.264, 80.424 53.771 C 76.976 52.045, 75.004 51.501, 75.010 52.278 M 57.384 68.442 C 56.503 70.737, 57.394 73.500, 59.014 73.500 C 59.831 73.500, 60.823 74.287, 61.218 75.250 C 61.991 77.136, 65 77.686, 65 75.941 C 65 75.359, 64.547 75.162, 63.993 75.504 C 63.439 75.847, 62.722 75.311, 62.399 74.313 C 60.025 66.975, 58.591 65.296, 57.384 68.442 M 45.211 72.601 C 44.501 73.370, 44.196 74, 44.532 74 C 44.868 74, 44.436 74.707, 43.571 75.571 C 42.707 76.436, 42 77.723, 42 78.432 C 42 79.141, 40.853 81.411, 39.451 83.478 C 38.048 85.544, 37.148 87.482, 37.451 87.784 C 38.166 88.499, 37.998 88.753, 42.864 79.615 C 47.051 71.752, 47.654 69.949, 45.211 72.601 M 65.521 83.967 C 65.218 84.456, 65.954 85.002, 67.157 85.179 C 69.807 85.568, 70.720 87.645, 68.536 88.314 C 67.208 88.721, 67.221 88.773, 68.618 88.648 C 69.529 88.567, 70.684 87.391, 71.184 86.037 C 71.684 84.682, 71.801 83.866, 71.444 84.223 C 71.087 84.580, 69.732 84.468, 68.433 83.974 C 67.054 83.450, 65.842 83.447, 65.521 83.967" stroke="none" fill="#2f3543" fill-rule="evenodd"/><path d="M 40 8 L 32.500 8.640 40.250 8.820 C 44.870 8.927, 48 8.596, 48 8 C 48 7.450, 47.888 7.081, 47.750 7.180 C 47.612 7.279, 44.125 7.648, 40 8 M 32.203 24.076 C 32.332 25.768, 32.756 27.349, 33.147 27.591 C 34.196 28.239, 35.145 24.540, 34.416 22.641 C 33.362 19.895, 31.954 20.808, 32.203 24.076 M 55.118 50.750 C 55.523 53.311, 54.821 55.963, 53.796 55.750 C 53.134 55.612, 51.896 57.525, 51.046 60 C 50.196 62.475, 49.050 64.872, 48.500 65.326 C 47.897 65.824, 48.070 65.998, 48.938 65.764 C 49.728 65.550, 51.011 63.466, 51.789 61.134 C 53.390 56.331, 55.634 55.905, 57.710 60.009 L 58.971 62.500 58.985 59.872 C 59 57.269, 56.424 50, 55.487 50 C 55.219 50, 55.053 50.337, 55.118 50.750 M 59 64.891 C 59 65.381, 59.890 67.743, 60.978 70.141 C 63.147 74.921, 63.835 72.694, 61.902 67.149 C 60.895 64.259, 59 62.785, 59 64.891" stroke="none" fill="#2f303d" fill-rule="evenodd"/><path d="M 58.750 8.732 C 61.087 8.943, 64.912 8.943, 67.250 8.732 C 69.588 8.522, 67.675 8.349, 63 8.349 C 58.325 8.349, 56.412 8.522, 58.750 8.732 M 35.056 11.250 C 35.025 12.213, 34.450 13, 33.778 13 C 33.106 13, 33.543 13.987, 34.750 15.194 C 37.529 17.974, 37.943 17.411, 36.365 13 C 35.676 11.075, 35.087 10.287, 35.056 11.250 M 39.751 10.723 C 42.654 11.084, 42.888 11.342, 41.932 13.127 C 40.802 15.239, 42.152 18, 44.314 18 C 44.901 18, 44.597 17.426, 43.637 16.724 C 41.488 15.152, 42.391 12.191, 45.389 10.980 C 46.904 10.368, 45.946 10.154, 42 10.223 C 38.646 10.282, 37.768 10.477, 39.751 10.723 M 40.058 19.597 C 40.625 21.300, 42.756 24.225, 44.794 26.097 L 48.500 29.500 45.012 25.706 C 42.114 22.556, 41.775 21.753, 43.012 20.972 C 44.209 20.214, 44.229 20.028, 43.110 20.015 C 42.346 20.007, 41.115 19.212, 40.374 18.250 C 39.209 16.736, 39.167 16.918, 40.058 19.597 M 26.327 23.024 C 25.131 25.224, 24.527 26.792, 24.983 26.510 C 25.440 26.228, 25.662 26.785, 25.477 27.749 C 23.174 39.747, 22.595 42.132, 21.878 42.576 C 21.418 42.860, 20.062 42.568, 18.865 41.928 C 16.999 40.929, 16.427 41.102, 14.866 43.131 C 13.864 44.434, 13.058 45.950, 13.075 46.500 C 13.091 47.050, 13.773 46.545, 14.590 45.377 C 15.826 43.611, 16.867 43.317, 20.788 43.630 C 23.379 43.837, 24.935 43.742, 24.244 43.418 C 22.422 42.564, 25.893 37, 28.247 37 C 31.093 37, 31.470 34.180, 29.169 30.087 C 27.701 27.475, 27.380 26.020, 28.109 25.291 C 28.685 24.715, 29.009 23.069, 28.828 21.634 C 28.513 19.124, 28.417 19.177, 26.327 23.024 M 31.131 36.342 C 29.699 38.068, 30.666 38.996, 33.917 39.015 C 36.008 39.028, 36.215 39.230, 35 40.081 C 33.851 40.885, 34.085 40.975, 36 40.465 C 37.375 40.098, 39.012 39.152, 39.638 38.362 C 40.263 37.572, 41.163 36.995, 41.638 37.081 C 42.112 37.167, 43.850 37.123, 45.500 36.985 C 47.815 36.790, 47.358 36.555, 43.500 35.954 C 35.842 34.761, 32.352 34.871, 31.131 36.342 M 40.079 42.978 C 36.562 43.515, 34.481 46, 37.549 46 C 38.492 46, 40.835 46.971, 42.756 48.158 C 46.158 50.261, 46.233 50.446, 45.706 55.408 C 45.408 58.209, 44.895 61.400, 44.566 62.500 C 44.237 63.600, 44.863 62.700, 45.957 60.500 C 48.175 56.042, 48.523 51.505, 46.961 47.398 C 46.180 45.343, 46.242 44.436, 47.211 43.739 C 48.106 43.095, 47.913 43.003, 46.580 43.440 C 45.524 43.785, 44.399 43.705, 44.080 43.262 C 43.761 42.819, 41.961 42.691, 40.079 42.978 M 65.702 48.631 C 64.579 49.754, 67.012 53, 68.976 53 C 70.024 53, 71.160 53.450, 71.500 54 C 71.840 54.550, 73.554 54.948, 75.309 54.884 C 77.064 54.820, 77.713 54.562, 76.750 54.311 C 75.787 54.059, 74.964 53.099, 74.921 52.177 C 74.876 51.230, 74.631 51.020, 74.356 51.694 C 74.089 52.350, 73.337 52.701, 72.685 52.473 C 66.039 50.151, 65.589 49.872, 67.034 48.958 C 67.840 48.448, 68.013 48.024, 67.417 48.015 C 66.821 48.007, 66.049 48.284, 65.702 48.631 M 81.643 57.513 C 81.963 58.345, 81.781 59.582, 81.239 60.263 C 79.059 63.003, 76.122 71, 77.306 70.974 C 78.426 70.950, 80.551 67.080, 82.921 60.750 C 83.487 59.237, 84.524 57.993, 85.225 57.985 C 86.108 57.974, 86.039 57.671, 85 57 C 82.736 55.537, 80.987 55.804, 81.643 57.513 M 54.341 58.238 C 53.833 58.932, 52.780 60.850, 52.002 62.500 C 51.223 64.150, 49.892 66.400, 49.043 67.500 C 47.514 69.481, 47.521 69.482, 49.750 67.595 C 50.987 66.547, 52 65.085, 52 64.345 C 52 63.605, 52.428 63, 52.950 63 C 54.821 63, 55.682 66.264, 54.890 70.352 C 54.183 74.004, 54.370 74.755, 56.457 76.628 C 58.097 78.100, 59.655 78.597, 61.513 78.242 C 63.699 77.824, 64.134 78.063, 63.849 79.526 C 63.437 81.647, 58.002 83.817, 52.832 83.924 C 50.814 83.966, 48.454 84.272, 47.588 84.605 C 44.687 85.718, 47.067 87.001, 51.809 86.882 C 55.911 86.778, 56.123 86.675, 53.500 86.061 C 50.751 85.418, 50.899 85.323, 55.282 84.920 C 59.384 84.543, 59.812 84.665, 58.290 85.777 C 56.795 86.870, 57.434 86.966, 62.357 86.388 C 66.829 85.862, 68.427 86.029, 69.175 87.101 C 69.990 88.268, 70.085 88.252, 69.748 87 C 69.525 86.175, 68.359 85.355, 67.157 85.179 C 65.954 85.002, 65.202 84.481, 65.486 84.022 C 65.770 83.563, 66.789 83.306, 67.751 83.450 C 68.713 83.595, 68.938 83.520, 68.250 83.283 C 67.563 83.047, 67 81.951, 67 80.847 C 67 79.138, 67.445 78.939, 70 79.500 C 73.299 80.225, 73.573 79.638, 71.943 75.349 C 71.097 73.124, 70.700 72.861, 69.961 74.034 C 69.333 75.031, 69.511 75.855, 70.519 76.610 C 73.575 78.901, 72.225 79.205, 67.250 77.346 C 66.287 76.987, 64.709 76.791, 63.742 76.911 C 62.774 77.030, 61.649 76.312, 61.242 75.314 C 60.834 74.316, 59.825 73.500, 59 73.500 C 57.143 73.500, 56.441 69.378, 57.983 67.521 C 58.671 66.691, 58.857 64.756, 58.455 62.611 C 57.668 58.418, 55.723 56.350, 54.341 58.238 M 19.647 63.750 C 19.900 64.713, 20.966 66.625, 22.014 68 L 23.922 70.500 23.711 67.500 C 23.595 65.850, 22.825 63.952, 22 63.282 C 19.885 61.564, 19.113 61.717, 19.647 63.750 M 37 89.500 C 37 90.593, 38.017 90.959, 40.750 90.850 C 43.766 90.730, 43.962 90.619, 41.750 90.284 C 40.237 90.055, 39 89.447, 39 88.934 C 39 88.420, 38.550 88, 38 88 C 37.450 88, 37 88.675, 37 89.500" stroke="none" fill="#38436b" fill-rule="evenodd"/><path d="M 70 17.799 C 70 18.421, 68.537 20.634, 66.750 22.715 C 64.963 24.797, 64.287 25.882, 65.250 25.128 C 66.213 24.373, 67 24.141, 67 24.613 C 67 25.084, 67.927 23.741, 69.059 21.628 C 70.192 19.515, 70.867 17.534, 70.559 17.226 C 70.252 16.918, 70 17.176, 70 17.799 M 64.161 30.547 C 62.622 33.924, 62.691 34.333, 64.670 33.573 C 66.853 32.736, 67.966 34.622, 67.985 39.191 C 67.999 42.757, 69.974 45.578, 70.774 43.177 C 70.990 42.530, 71.692 42.014, 72.333 42.032 C 73.881 42.074, 79 46.620, 79 47.952 C 79 48.528, 79.675 49, 80.500 49 C 81.807 49, 82.390 50.074, 82.174 52.083 C 82.139 52.404, 82.741 52.667, 83.512 52.667 C 84.282 52.667, 84.629 52.179, 84.284 51.583 C 83.939 50.988, 84.653 51.375, 85.871 52.444 C 88.065 54.369, 88.080 54.369, 87.461 52.444 C 86.870 50.605, 86.915 50.595, 88.297 52.275 C 89.662 53.935, 89.791 53.874, 90.275 51.339 C 90.845 48.360, 87.640 40.553, 84.750 37.883 C 83.787 36.993, 83 35.681, 83 34.966 C 83 34.251, 82.716 33.951, 82.369 34.298 C 81.754 34.912, 83.639 39.801, 86.554 45.154 C 87.349 46.614, 88 48.355, 88 49.023 C 88 50.499, 81.423 45.626, 78.084 41.675 C 76.166 39.406, 75.097 38.931, 72.899 39.370 C 70.431 39.864, 70.003 39.540, 68.964 36.392 C 68.323 34.449, 67.156 32.613, 66.370 32.312 C 65.494 31.976, 65.172 31.034, 65.538 29.882 C 66.406 27.146, 65.514 27.577, 64.161 30.547" stroke="none" fill="#b6c4cc" fill-rule="evenodd"/><path d="M 65.020 25.476 C 64.324 26.314, 64.148 27.002, 64.628 27.005 C 65.107 27.008, 64.354 28.020, 62.953 29.255 C 61.552 30.490, 60.989 31.107, 61.703 30.628 C 62.558 30.053, 63.010 30.223, 63.030 31.128 C 63.054 32.180, 63.270 32.143, 63.957 30.970 C 64.450 30.128, 64.999 28.778, 65.177 27.970 C 65.355 27.161, 65.937 26.187, 66.471 25.804 C 67.005 25.422, 67.182 24.848, 66.864 24.530 C 66.545 24.212, 65.716 24.638, 65.020 25.476 M 61.503 35.846 C 61.179 37.136, 61.436 38.820, 62.074 39.589 C 63.761 41.622, 73.454 47, 75.431 47 C 76.359 47, 76.851 47.433, 76.524 47.962 C 76.197 48.491, 77.745 49.850, 79.965 50.982 C 82.184 52.114, 84 52.720, 84 52.329 C 84 51.938, 84.613 52.456, 85.362 53.480 C 86.799 55.446, 90.347 56.542, 89.782 54.845 C 89.599 54.298, 89.011 53.852, 88.475 53.854 C 87.939 53.856, 86.788 53.214, 85.919 52.427 C 85.049 51.640, 84.047 51.286, 83.692 51.641 C 83.337 51.996, 82.763 51.547, 82.417 50.643 C 82.070 49.739, 81.159 49, 80.393 49 C 79.627 49, 79 48.528, 79 47.952 C 79 46.581, 73.860 42.072, 72.250 42.032 C 71.563 42.014, 71 42.450, 71 43 C 71 44.671, 68.982 44.117, 68.272 42.250 C 67.906 41.288, 66.508 39.631, 65.166 38.570 L 62.727 36.640 64.842 34.927 L 66.957 33.214 64.525 33.357 C 62.871 33.454, 61.904 34.251, 61.503 35.846" stroke="none" fill="#d0dce0" fill-rule="evenodd"/><path d="M 40.750 4.945 C 34.838 5.305, 29.581 6.027, 29.068 6.550 C 27.133 8.520, 5 53.151, 5 55.081 C 5 57.716, 6.753 61.017, 14.691 73.327 C 27.498 93.188, 30.429 97.213, 32.723 98.085 C 34.157 98.630, 40.864 98.393, 50.272 97.464 C 68.464 95.668, 75.776 94.431, 77.714 92.822 C 79.383 91.438, 88.008 76.888, 93.616 66 C 98.473 56.569, 98.599 52.501, 94.257 45.310 C 92.533 42.455, 87.309 32.105, 82.648 22.310 L 74.174 4.500 62.837 4.395 C 56.602 4.337, 46.663 4.584, 40.750 4.945 M 40.103 8 C 34.120 8.404, 32.495 8.874, 31.603 10.458 C 30.996 11.535, 29.938 13.029, 29.250 13.779 C 28.563 14.529, 28 15.786, 28 16.571 C 28 17.357, 27.602 18, 27.117 18 C 26.198 18, 24.664 21.822, 24.945 23.408 C 25.033 23.908, 24.689 24.583, 24.180 24.908 C 23.671 25.234, 21.668 28.650, 19.728 32.500 C 17.788 36.350, 14.581 42.356, 12.601 45.846 C 8.509 53.057, 8.262 54.761, 10.816 58.115 C 12.585 60.438, 20.640 73.568, 23.883 79.416 C 24.772 81.020, 26.253 83.270, 27.174 84.416 C 28.095 85.562, 29.743 87.625, 30.836 89 C 32.766 91.428, 33.184 91.500, 45.362 91.500 C 52.258 91.500, 57.135 91.228, 56.200 90.895 C 54.705 90.363, 69.299 88.363, 71.270 88.831 C 72.790 89.191, 79.121 82.523, 81.027 78.552 C 82.098 76.324, 84.331 72.250, 85.990 69.500 C 87.650 66.750, 89.500 63.262, 90.102 61.750 C 90.703 60.237, 91.526 59, 91.930 59 C 93.701 59, 94.666 52.398, 93.421 48.803 C 92.729 46.805, 92.340 44.994, 92.555 44.778 C 92.770 44.563, 91.649 42.966, 90.063 41.230 C 88.477 39.493, 86.654 36.481, 86.012 34.536 C 85.370 32.591, 84.491 31, 84.058 31 C 83.626 31, 82.537 29.087, 81.639 26.750 C 80.741 24.412, 79.025 20.925, 77.827 19 C 76.629 17.075, 75.572 14.637, 75.479 13.581 C 75.386 12.526, 74.044 10.575, 72.498 9.245 C 69.829 6.949, 69.128 6.844, 58.594 7.164 C 52.492 7.349, 44.171 7.725, 40.103 8 M 32.015 14.679 C 32.023 15.130, 32.666 17.300, 33.443 19.500 C 34.263 21.822, 34.629 25.212, 34.315 27.582 C 33.815 31.358, 33.989 31.748, 36.637 32.789 C 40.072 34.138, 51.161 36.172, 51.769 35.564 C 52.150 35.183, 48.422 31.046, 35.651 17.679 C 33.643 15.577, 32.007 14.227, 32.015 14.679 M 57.882 26.750 C 57.816 27.163, 57.816 27.837, 57.882 28.250 C 57.947 28.663, 57.325 29, 56.500 29 C 55.675 29, 55 29.675, 55 30.500 C 55 31.991, 57.884 32.683, 58.128 31.250 C 58.551 28.765, 58.675 26, 58.363 26 C 58.164 26, 57.947 26.337, 57.882 26.750" stroke="none" fill="#302f39" fill-rule="evenodd"/><path d="M 49 51.918 C 49 54.623, 48.768 57.661, 48.484 58.668 C 48.199 59.676, 48.863 58.700, 49.957 56.500 C 52.371 51.649, 52.636 47, 50.500 47 C 49.370 47, 49 48.213, 49 51.918 M 27.250 62.346 C 24.349 65.214, 24.349 69.733, 27.250 73.443 C 32.451 80.094, 33.720 81.291, 34.836 80.601 C 36.743 79.423, 36.157 77, 33.965 77 C 32.256 77, 32.517 76.485, 35.593 73.784 C 38.493 71.238, 43 63.713, 43 61.417 C 43 60.437, 41.018 61.125, 39.518 62.624 C 38.019 64.124, 37.720 64.085, 35.633 62.124 C 32.775 59.440, 30.118 59.510, 27.250 62.346 M 23.972 76.417 C 28.223 84.418, 33.137 91.121, 34.435 90.689 C 36.359 90.048, 36.142 87.270, 34.127 86.743 C 33.044 86.460, 31.252 84.489, 30.145 82.364 C 29.038 80.239, 26.489 76.700, 24.480 74.500 L 20.828 70.500 23.972 76.417 M 42.295 72.250 C 39.901 75.399, 36 83.022, 36 84.551 C 36 85.995, 36.238 86.048, 37.610 84.909 C 38.536 84.141, 38.772 83.424, 38.166 83.222 C 37.586 83.029, 37.359 82.227, 37.661 81.441 C 37.963 80.655, 38.556 80.226, 38.979 80.487 C 39.402 80.749, 40.680 78.721, 41.819 75.981 C 43.908 70.954, 44.035 69.961, 42.295 72.250 M 41.535 85.587 C 39.713 88.367, 40.025 89.707, 42.175 88.342 C 42.904 87.879, 43.536 86.487, 43.579 85.250 C 43.679 82.425, 43.598 82.439, 41.535 85.587" stroke="none" fill="#5fa6f3" fill-rule="evenodd"/><path d="M 71.416 12.522 C 71.860 14.290, 71.593 15.219, 70.525 15.629 C 69.686 15.951, 69 16.806, 69 17.530 C 69 18.254, 67.778 20.344, 66.285 22.173 C 64.249 24.668, 64.124 25.024, 65.785 23.595 C 68.406 21.341, 68.573 22.384, 66.418 27.542 C 65.013 30.904, 65.005 31.423, 66.343 32.172 C 67.172 32.636, 68.363 34.570, 68.990 36.470 C 70.002 39.537, 70.440 39.862, 72.899 39.370 C 75.097 38.931, 76.166 39.406, 78.084 41.675 C 81.423 45.626, 88 50.499, 88 49.023 C 88 48.355, 87.349 46.614, 86.554 45.154 C 83.639 39.801, 81.754 34.912, 82.369 34.298 C 82.716 33.951, 83 34.224, 83 34.905 C 83 35.586, 83.675 36.818, 84.500 37.643 C 87.001 40.144, 86.205 37.628, 82 29.740 C 79.800 25.613, 78 21.524, 78 20.653 C 78 19.033, 74.253 16.413, 73.300 17.367 C 73.009 17.658, 73.913 19.939, 75.309 22.436 C 76.704 24.934, 77.431 27.234, 76.923 27.547 C 76.415 27.861, 76 27.416, 76 26.559 C 76 24.958, 75.108 24.651, 71.328 24.951 C 69.589 25.088, 69.264 24.708, 69.698 23.046 C 69.997 21.903, 70.637 20.724, 71.121 20.425 C 71.604 20.127, 72 18.784, 72 17.441 C 72 16.098, 72.505 15, 73.122 15 C 73.913 15, 73.887 14.569, 73.036 13.544 C 72.372 12.743, 72.118 11.618, 72.473 11.044 C 72.828 10.470, 72.593 10, 71.951 10 C 71.202 10, 71.010 10.905, 71.416 12.522 M 54.021 43.475 C 53.011 44.691, 53.254 45.159, 55.404 46.138 C 57.155 46.936, 58.346 48.571, 59.033 51.121 C 60.253 55.654, 62 57.124, 62 53.618 C 62 52.243, 61.550 50.840, 61 50.500 C 60.450 50.160, 60 48.999, 60 47.920 C 60 46.803, 58.935 45.472, 57.531 44.832 C 56.174 44.214, 55.300 43.323, 55.590 42.854 C 56.461 41.445, 55.336 41.891, 54.021 43.475 M 90 54.617 C 90 55.741, 89.391 56.074, 87.999 55.710 C 86.898 55.422, 86.249 55.595, 86.558 56.093 C 87.562 57.719, 90.904 57.048, 92 55 C 92.854 53.404, 92.760 53, 91.535 53 C 90.691 53, 90 53.727, 90 54.617" stroke="none" fill="#8eb0d1" fill-rule="evenodd"/><path d="M 70.669 8.664 C 70.301 9.032, 70.007 10.046, 70.015 10.917 C 70.028 12.205, 70.193 12.243, 70.904 11.122 C 71.384 10.364, 72.277 10.053, 72.888 10.431 C 74.271 11.286, 74.362 15, 73 15 C 72.450 15, 72 15.849, 72 16.886 C 72 17.923, 71.331 20.060, 70.512 21.636 C 68.927 24.689, 69.787 25.750, 72.783 24.436 C 73.727 24.021, 74.851 23.759, 75.281 23.852 C 75.711 23.945, 75.340 22.624, 74.457 20.917 C 72.539 17.208, 73.016 16.411, 76.164 18.064 C 78.436 19.258, 78.452 19.237, 76.750 17.317 C 75.787 16.231, 75 14.435, 75 13.326 C 75 11.111, 71.736 7.598, 70.669 8.664 M 45.105 11.085 C 41.750 12.427, 42.898 13.053, 47.380 12.326 C 49.951 11.909, 50.731 11.445, 49.827 10.872 C 48.237 9.864, 48.147 9.868, 45.105 11.085 M 67.750 13.716 C 64.847 14.156, 63.892 16, 66.567 16 C 68.268 16, 67.789 19.096, 65.632 22.049 C 65.009 22.901, 65.513 22.538, 66.750 21.243 C 67.987 19.948, 69 18.287, 69 17.551 C 69 16.816, 69.675 15.955, 70.500 15.638 C 72.002 15.062, 72.663 12.868, 71.250 13.150 C 70.838 13.232, 69.263 13.487, 67.750 13.716 M 78 20.867 C 78 22.269, 82.811 32, 83.504 32 C 83.987 32, 79.306 20.972, 78.467 20.133 C 78.210 19.877, 78 20.207, 78 20.867 M 49.862 27.421 C 52.967 31.420, 53.225 34.528, 50.178 31.224 C 49.230 30.197, 48.914 30.079, 49.451 30.953 C 49.974 31.804, 51.031 33.033, 51.801 33.683 C 52.629 34.384, 52.872 35.397, 52.397 36.166 C 51.956 36.880, 51.539 38.215, 51.472 39.132 C 51.375 40.442, 51.704 40.577, 53.010 39.762 C 54.062 39.105, 54.505 37.860, 54.218 36.362 C 53.870 34.541, 54.208 34, 55.691 34 C 56.867 34, 58.868 32.154, 60.839 29.250 L 64.063 24.500 61.031 27.962 C 59.364 29.866, 58 31.779, 58 32.212 C 58 34.134, 55.485 32.642, 51.321 28.250 C 47.464 24.182, 47.255 24.063, 49.862 27.421 M 19.520 35.610 C 18.124 37.741, 18.159 37.766, 21.018 36.687 C 24.478 35.381, 25.582 33.429, 22.861 33.429 C 21.810 33.429, 20.306 34.410, 19.520 35.610 M 84 33.239 C 84 34.529, 88.433 42, 89.198 42 C 89.653 42, 88.834 40.087, 87.378 37.750 C 84.388 32.949, 84 32.431, 84 33.239 M 29.579 44.830 C 26.322 45.749, 23.476 47.051, 23.254 47.725 C 22.959 48.621, 24.144 48.530, 27.675 47.385 C 30.329 46.524, 33.251 45.830, 34.169 45.842 C 35.087 45.854, 36.086 45.219, 36.388 44.432 C 37.045 42.720, 37.065 42.719, 29.579 44.830 M 59.646 45.848 C 59.995 47.307, 60.893 49.715, 61.640 51.200 C 62.388 52.686, 63 55.019, 63 56.385 C 63 57.752, 63.439 60.024, 63.975 61.435 C 64.512 62.846, 64.564 64, 64.091 64 C 63.122 64, 59.192 54.702, 58.697 51.236 C 58.196 47.739, 56.556 46.619, 54.908 48.650 C 54.133 49.603, 54.012 50.077, 54.637 49.703 C 56.233 48.747, 57.432 50.642, 59.251 57 C 61.156 63.657, 65.227 75.027, 66.323 76.750 C 67.399 78.442, 70.353 78.362, 69.700 76.659 C 69.417 75.922, 69.568 74.700, 70.035 73.943 C 70.677 72.905, 71.144 73.249, 71.943 75.349 C 73.573 79.638, 73.299 80.225, 70 79.500 C 67.417 78.933, 67 79.130, 67 80.921 C 67 82.064, 67.450 83, 68 83 C 68.550 83, 69 82.494, 69 81.875 C 69 81.161, 70.084 80.967, 71.969 81.344 C 74.816 81.913, 74.913 81.816, 74.344 78.969 C 73.916 76.832, 74.135 75.996, 75.125 75.986 C 75.881 75.979, 77.583 75.683, 78.906 75.329 C 80.773 74.829, 81.149 75.001, 80.582 76.092 C 80.180 76.867, 80.537 76.658, 81.375 75.628 C 82.706 73.993, 82.715 73.573, 81.449 72.307 C 79.752 70.610, 79.605 69.362, 81 68.500 C 81.550 68.160, 82 68.557, 82 69.382 C 82 72.438, 83.768 71.812, 86.372 67.834 C 87.846 65.583, 88.810 62.978, 88.514 62.046 C 88.161 60.931, 88.811 59.904, 90.412 59.047 C 92.667 57.840, 94.746 53.413, 93.597 52.264 C 93.322 51.989, 92.802 52.942, 92.440 54.382 C 91.634 57.595, 89.452 57.736, 84.307 54.907 C 82.213 53.755, 81.351 53.514, 82.392 54.371 C 83.432 55.227, 84.782 56.143, 85.392 56.406 C 86.072 56.699, 85.824 57.312, 84.750 57.992 C 83.787 58.601, 83 59.546, 83 60.091 C 83 62.226, 78.433 70.960, 77.306 70.980 C 76.131 71, 79.048 63.018, 81.210 60.298 C 82.380 58.826, 81.308 55.038, 79.683 54.899 C 79.032 54.843, 77.083 54.874, 75.351 54.967 C 73.619 55.060, 71.905 54.655, 71.542 54.068 C 71.179 53.481, 70.031 53, 68.991 53 C 67.950 53, 66.661 52.216, 66.125 51.258 C 65.589 50.300, 64.823 49.844, 64.423 50.243 C 63.832 50.835, 61 46.806, 61 45.372 C 61 45.153, 62.688 45.695, 64.750 46.577 C 70.888 49.203, 71.607 49.409, 70.500 48.223 C 69.950 47.634, 67.140 46.262, 64.256 45.174 L 59.011 43.196 59.646 45.848 M 46.070 44.750 C 46.109 45.163, 46.527 46.400, 47 47.500 C 47.804 49.370, 47.864 49.346, 47.930 47.128 C 47.989 45.135, 48.240 44.954, 49.500 46 C 50.365 46.718, 51 46.815, 51 46.229 C 51 45.671, 50.288 44.941, 49.418 44.607 C 47.282 43.787, 45.985 43.843, 46.070 44.750 M 18.241 62.500 C 19.626 65.189, 20.468 65.915, 19.691 63.750 C 18.982 61.774, 20.040 61.440, 21.713 63.113 C 23.017 64.417, 25 63.469, 25 61.541 C 25 60.623, 23.770 60.247, 21.105 60.350 C 17.552 60.487, 17.301 60.675, 18.241 62.500 M 83.578 63.143 C 81.558 67.193, 81.548 67.163, 84.500 65.818 C 85.875 65.192, 87 63.878, 87 62.899 C 87 59.755, 85.204 59.884, 83.578 63.143 M 70 68.519 C 70 69.435, 70.933 71.371, 72.074 72.821 L 74.148 75.458 73.824 71.487 C 73.593 68.660, 72.996 67.421, 71.750 67.185 C 70.651 66.977, 70 67.473, 70 68.519 M 78.079 80.291 C 76.780 83.709, 74.190 85.590, 72.758 84.158 C 70.789 82.189, 69.920 82.883, 71.720 84.986 C 73.406 86.955, 73.443 86.950, 76.120 84.385 C 77.605 82.963, 79.043 80.944, 79.316 79.899 C 80.010 77.245, 79.132 77.523, 78.079 80.291" stroke="none" fill="#3d4d65" fill-rule="evenodd"/></svg>