<?xml version="1.0" encoding="utf-8"?>
<!-- Uploaded to: SVG Repo, www.svgrepo.com, Generator: SVG Repo Mixer Tools -->
<svg fill="#000000" width="800px" height="800px" viewBox="0 0 32 32" version="1.1" xmlns="http://www.w3.org/2000/svg">
<title>camera-slash</title>
<path d="M31.25 27v-18c-0-0.69-0.56-1.25-1.25-1.25h-7.23l-1.65-3.309c-0.21-0.413-0.632-0.691-1.119-0.691 0 0 0 0-0 0h-8c-0.487 0-0.908 0.278-1.115 0.684l-0.003 0.007-1.557 3.115-6.441-6.44c-0.226-0.225-0.537-0.363-0.881-0.363-0.69 0-1.25 0.56-1.25 1.25 0 0.344 0.139 0.655 0.363 0.881l27.999 28.001c0.226 0.226 0.539 0.366 0.884 0.366 0.691 0 1.251-0.56 1.251-1.251 0-0.345-0.14-0.658-0.366-0.884l-0.869-0.869c0.682-0.009 1.232-0.563 1.234-1.247v-0zM17.432 15.663c0.371 0.23 0.674 0.534 0.898 0.893l0.007 0.012zM21.069 19.3c0.115-0.407 0.181-0.875 0.181-1.358 0-2.868-2.325-5.193-5.193-5.193-0.483 0-0.951 0.066-1.395 0.189l0.037-0.009-3.511-3.511 1.585-3.17h6.454l1.65 3.309c0.21 0.413 0.632 0.691 1.119 0.691 0 0 0 0 0 0h6.754v15.5h-1.231zM22 25.75h-18.75v-15.5h0.75c0.69 0 1.25-0.56 1.25-1.25s-0.56-1.25-1.25-1.25v0h-2c-0.69 0-1.25 0.56-1.25 1.25v0 18c0 0.69 0.56 1.25 1.25 1.25h20c0.69 0 1.25-0.56 1.25-1.25s-0.56-1.25-1.25-1.25v0zM12.437 15.789c-0.091-0.024-0.196-0.037-0.303-0.037-0.581 0-1.071 0.394-1.216 0.929l-0.002 0.009c-0.105 0.392-0.165 0.842-0.165 1.307 0 2.9 2.35 5.252 5.25 5.254h0c0.002 0 0.005 0 0.007 0 0.466 0 0.918-0.061 1.348-0.176l-0.036 0.008c0.541-0.146 0.932-0.632 0.932-1.209 0-0.69-0.56-1.25-1.25-1.25-0.113 0-0.223 0.015-0.327 0.043l0.009-0.002c-0.202 0.055-0.435 0.086-0.675 0.086-0.003 0-0.005 0-0.007 0h0c-1.519-0.002-2.75-1.234-2.75-2.753 0-0.244 0.032-0.48 0.091-0.706l-0.004 0.019c0.025-0.093 0.039-0.2 0.039-0.31 0-0.58-0.395-1.068-0.931-1.209l-0.009-0.002z"></path>
</svg>